<mxfile host="Electron" modified="2024-01-04T17:30:05.671Z" agent="Mozilla/5.0 (Windows NT 6.1; Win64; x64) AppleWebKit/537.36 (KHTML, like Gecko) draw.io/21.1.2 Chrome/106.0.5249.199 Electron/21.4.3 Safari/537.36" etag="RD8pE8UeDt3FRYB6QuZ5" version="21.1.2" type="device">
  <diagram name="ページ1" id="ykJumhvv3G1gCfvCttRE">
    <mxGraphModel dx="1418" dy="775" grid="1" gridSize="10" guides="1" tooltips="1" connect="1" arrows="1" fold="1" page="1" pageScale="1" pageWidth="1169" pageHeight="827" math="0" shadow="0">
      <root>
        <mxCell id="0" />
        <mxCell id="1" parent="0" />
        <mxCell id="Ksmy3lqjPyIy8pXsrAGs-2" value="" style="shape=image;verticalLabelPosition=bottom;labelBackgroundColor=default;verticalAlign=top;aspect=fixed;imageAspect=0;image=data:image/png,iVBORw0KGgoAAAANSUhEUgAAAl0AAANECAYAAACKLJrMAAAAAXNSR0IArs4c6QAAAARnQU1BAACxjwv8YQUAAAAJcEhZcwAADsMAAA7DAcdvqGQAAFhlSURBVHhe7d1trKT3ed93uYIrFAn0og6QwhRSpAhaEHDSNK4A90WNqiiCooaKooVRkCgSpyGLCnEC2a5jNCTi2LCrJKpjg3EsWxZpS5UjkZQpMaIs+oGpKUsqxbUo0hQpkVouxSVXos0VRUp80IOT6V6HvPc/O3ufc+6ZM3PNNfP//IBP7Bxrl2fPrnm+nrl25jWz2QzozFe+8pXZmTNnZg899NDsk5/85IE777xz9uEPf/gy8fHhP/Poo4/Onnzyydnzzz9/4acZ/7kBGDf6QWC/vPjiiwfBdPfdd4+G1Soixk6dOnUQYd/61rcu/GPG/9kAvGL0g8B+iEek7r///tFoCnfcccfSxn6eEAEWj6Atfg4AvGL0g8Bue/rppw+eDlwMo7GIOqnFf0b8c8UXwOVGPwjsnniKL57qu+uuuy4LobFYWrfFf2bEVzytufh5AvRq9IPA7hjutRYP4cfCKMvwOcTnFAf7i58zQI9GPwjUd9i91lgEbcP85xT3Xo7tgd6NfhCoK/Neax2Gzy/+5qTwAno2+kGgnm3ea53U8LkKL6Bnox8EaohAqXavtSrhBfRu9IPAdsVxfOV7rVUNvw7hBfRo9IPAdsTrW+3SvdYqhl9TROXirx9gn41+EMi1K/daN9xww+xtb3vbZW655ZbR//xhhl+fl5MAejL6QWDzDrvXCmOhki0C69prr5298Y1vnL3+9a+/8G+L1xzryiuvnF199dUHP3bs55wXv874tXsBVaAXox8ENqfyvVbE0pvf/ObJkXWU+Dki2g57FGz4dcfTqYtfI4B9NPpBYP0q32v9yI/8yOwNb3jDZeG0Dq997WsPHv0a++cOX4N47bHFrxfAvhn9ILA+Ve+14hGoiKF1PKo1RUTd2NOO8bWIr8/i1w1g34x+EDiZyvdaN9100+xNb3rTwSNQY3G0afGo2vznM3xdIk4Xv44A+2T0g8Bqhnutii9mGn/LMI7ix0IoW9yNzX9u8TXyaBew70Y/CCwn7rXiTZ3nQ6tKbG3yXusk4tG24XMcvl4e7QL22egHgWkiEuLV1edDK8xHzzZk32utKv524/A5x9fN32QE9tnoB4HDDfdaFY/jt32vtYp42jM+9+Fr6HW7gH01+kHgcu61NiMCMR6ZG76eXqUe2FejHwQa91qbF8EYv574usbTtYu/BwD7YPSDgHutbPFo3fA19hQjsI9GPwi9cq+1PRGRw9faU4zAPhr9IPTGvVYNb33rWw++7vF07uLvEcCuG/0g9CLutaq++fS+3Gst44orrjj4+kf8Lv5eAey60Q/Cvot7rYpvPl3xXitC6Morr7xo059bvD9j/F48//zzF36rxn//AHbR6AdhH8W9VtwKudc6WjyVGU/zDfETX68I1MHwFGw87Rlv57Puzzm+DvHzu+sC9s3oB2GfxL3WQw89VPZeKyJjLD4yxaNXEVo333zzwd/YjL9MEE+9HrYI2Hi0MG6v4sdcddVVa4uv+Hni9yee9r2w0d9TgF00+kHYB9XvteKpurHoyBSfQ4RfBGl8rV59qYalFj8m4uvGG29c26/puuuu85ZAwN4Z/SDsssr3WvFegxXuteLRtYikeOowHtWKR65Ouvi6R7yt45G7eNoyfs8ubPT3GGAXjX4Qdk31e61N3D4tK/758TTg8BRiRNK6F8fv6wiv4W8xepFU1uVr3/w3F/7L+P8Msox+EHaFe63jzd9rxdOAR91qrWNDeEU4jX0+U8Xn++rnOvp7D1Oc+/q3Z7effn72jvv9WWL7Rj8I1bnXOl58DnEbdZJ7rVUXj6LF05cneXQvotXfYGRVn3/2G7P3PvzVg9gaLP5nINvoB6Gqp59+2r3WMeLRtXi5h3Xea62yeFTtmmuuGf0cp4inQuPzv7DRPwuw6Bt/+m9n9375pdmNDz57SWyJLqoY/SBUMrw8gXutww33WvHo0qbutZZdPLIWv0erhmh8Xb1sBFPEvdZdZ1+4LLJuevi52QfOvnzx/7/44yDb6AehgvimHY90uNc6XPa91rKLaFr10a54etTLRnCUuNf66ONfvyS0wrsf+drsg+e+Mfvw0986MHx88cdDttEPwjbFIbZ7raNt815rmcXnFUE49ms4Thziiy7GxL3WLY88d0lo/coDz85+4/QLs9u/9EpozRNdVDH6QdgG91rHq3Kvtczi6c54a6GxX89x4td5YaN/XujLcK+1eBz/zge/Orv58RcvC615oosqRj8IWdxrHa/ivdYyi7+BGE+Bjv3ajhN/Di5s9M8OfRjutRaP44d7rbHIWiS6qGL0g7Bp7rWON3+vFY8AVrvXmrp4ujiCcezXeBzR1a+j7rVue7Lda00x/NjFfwZkG/0gbIp7rePFI1txfB5fl8r3Wsssfi2rPGIYP+7CRv8ssZ+OuteaP45fhuiiitEPwrq515omwiRutuJrtQ+xNSx+PasErejqw3H3WmPH8csQXVQx+kFYl8r3WldfffXW77UWxVOb8ejWvi1+TXEfN/ZrPoro2m9H3Wvd8sWXRgNqFaKLKkY/CCcRx/FV77XiUaQK91pj4vOKQN2Fv5G47OLPQ/xlgLFf91FE135a573WFMPPv/h5QJZ4tue+++4b/x/CKuLpsKr3Wtdff32Je62jRBDu2t9MnDrRRYh7reHNpwcnvdeaQnSxDd/+9rdnTzzxxOzee++dfexjHzsw+h+EZcTfqqt6rxXH8VXutY4Sn+OrgbGXi5eNiBdzHfu1H+XVr8nonzt2Q9xrPfDMyxu715pCdJHp5Zdfnj3yyCMH3xc/8YlPHPz3zzzzjOjiZNxrrU88Chf/C7qvizCPe7WxX/tRRNfuinutj597ceP3WlOILjI899xzs4ceeuggrj71qU/NTp8+ffDvvvh4EF0s7bB7rQqxVfle6ziia5zo2j1xrzX25tObuteaYvgcFj9XWIfhXiuiKv7r448/fjG05okuJnOvtVmia5zo2h2H3Wu999FL33x6G0QX6xb3Wk899dTFe63Pfvazs3Pnzo3G1kB0cSz3WjlE1zjRVdtR91rve2z8zae3QXSxLnGv9dhjjx38+zrutR5++OGDe62xyFokujiUe61c8bToqVOnLnzp93Oia78cda913JtPb4Po4qQimuIgPsJp7F5rCtHFJdxrbU+8nEJ87fd1oms/HHWvNfXNp7dh+DwXfz1wnLjXeuCBBw6C6ah7rSlEFweGe62KL2a6D/daU0SQ7OtrdMVE126rfK81hehiGavca00hujoX3wjjKa350KoQW/t2rzXFjTfeOIs3A9/Xia7dsyv3WlOILqY4yb3WFKKrU/GIyt13310utvb1Xus48et9NS72dqJrd8S9Vrz59K7ca00hujhKBNFJ77WmEF0dGe61Kh7H7/u91nHi177Pf3MxJrrqe+alP93Je60phl/L4q+Zvs3fa8WzPie515pCdHXAvVZ9b33rWw/eJmefJ7rqOvPcN3f6XmsK0cVg8V4romsd91pTiK49Ft/kKt5rhd7utY5z8803zyKO93miq5a414rj+H2415pCdLF4rxXH8eu815pCdO2hqvdacRzf473WceKpxfj92veJrhoOu9e68bOvvPn0WLDsA9HVrxdeeOGSe6347+PfR2NRtGmia09UvteK4/ie77WOE/ds+/xSEcNE13Yddq/16597fufvtaYYfr2LXxf21/nz51PvtaYQXTuu8r1WfIN1r3W0+PrE710PE13bcdi9VhzH78u91hSiqw9xrxXH8du415pCdO2o+AZW9c2n3WtNFxGyz69CPz/Rleeoe63fOL1/91pTiK79FvdaTzzxxFbvtaYQXTsmnoaKP1TVYsu91vLiKdd4OriXia7N6/VeawrRtZ8q3WtNIbp2QNxrxcsJuNfaHxGn8TcW42HwXia6Nqf3e60phq/J4teO3VTxXmsK0VVY3Gs99NBD7rX20HXXXXfwL4qeJrrWL9582r3WNKJr91W/15pCdBUU35zca+2vq6666uAlIuIRzJ4mutbHvdbyRNfumr/Ximipeq81hegqxL3W/ounYuORy31+Y+vDJrpOJo7j3WutTnTtnvl7rTiOr36vNYXo2jL3Wv2It/rpNbhioms1cRzvXuvkhq/b4teXeubvteI4flfutaYQXVviXqsf8QhhfE3jKcV9f6ufoya6ljN2rxXca61m+Potfp2pY/5e67777tu5e60pRFey+MbjXmt13/Ed33HwOb7uda8b/Z9XE/Eaf0sxjuZ7u+FanOiaZuxeK47j3WudjOiqKY7j9+VeawrRlSQK3r3W6uLz++7v/u7ZX/2rf/WiCLCx/2wF8flec801B49k9vAWP1Mmug532L1WHMe711oP0VVLHMfv273WFKJrg+KRjfiG615rdfGI1l/8i3/xktgafOd3fufoj9m2+LrGo1sR2T0/nbg40XW5w+61bnr4OfdaazZ8bRd/D8gV4bGv91pTiK4NiG+08dYu7rVW92f+zJ85+DzHYmtQLboitm688caDyI7AsEsnuhr3WvmGr/Hi7wU5erjXmkJ0rVH8rTT3WquLpwu/67u+a/Y93/M9o5G1qMLTi/E0YrzuVsRWHMp7KvHwiS73WtskuvL1dq81hehag+r3WtVja+xe6zjxnx/7ubLE1zReAmJ4GtEjW8ev1+hyr1WD6MrT673WFKJrRbtwr1X9OP6oe62jbDO44inPeAuf+H2ORzXdbE1fb9E13GstxpZ7re0QXZsXUdHzvdYUomtJ1e+13vjGN45+46pkyr3WonjKMWJrW08pRsTG1zd+3+P3v/eXf1hlvURX3Gt99PGvXxJawb3Wdg2/D4u/X5zc4r3W2bNnR4MD0TVZ9XutN7zhDaPfsKpY9l5rEHEWP27s59y0eKTwzW9+88XjePdaJ9u+R1fca93yyHOXhJZ7rTpE13qN3WtFfI2FBo3oOoZ7rZOJ2Fr2Xiv8pb/0lw4eERv7OTctvqbxGlvutda7fYyu4V5r7M2n3WvVIrrWY+xeq/fj+GWIrkO41zqZeDmHVe61/sJf+AtbeymIeFQtjuPj99m91vq3T9F11L3WLV98afSbPtsluk4mgiHeui6iYbjXiv+dXowKjia65sSdjnutk3GvZYdtH6LrqHut2550r1XZ8Hu1+HvK0eLZnrjTilhwr3VyouuCeETDvdbJuNey47bL0XXUvZbj+N0guqYb7rWG43j3WuvTdXTFNwH3Wqtzr2XLbNei67h7Lcfxu0V0HW+414p/N7rX2owuo8u91snF57jsI1vutfrerkSXe639JLoOFzHgXitHN9F12L1WGAugTPGNaBfuteZNPZKvdq8ltra36tEV91oRW/OhFdxr7Yfh93Px971n7rXy7X10udfajLHAmhexVeley3H89lc1uuJea/HNp91r7R/R9Qr3Wtu1t9EV/4J3r7UZ8RThWGiFeBqvyr1W/IvE6qxSdMW91gPPvOxeqyO9R9fivdbDDz/sXmsL9i663GtNE49CxUF7RFI8/Tf2nzlMPFW4GFvxdGOVe6149wCrtwrRFfdaHz/3onutDvUaXfGNfv5e6/Tp0+61tmgvosu91nSHHcBHgI395w/z5//8n3evZUttm9HlXovh93zxz8a+ikf6hzefjnstbz5dw05H13CvtRhbY/GTLe614hGYsW8i23Lc3zh83eteN/rjKnGvtbvbRnQddq/13ke9+XRveoiuuNd66qmnLrnXOnfu3Og3f7ZjJ6Mr/uV96tSpS0KrQmzFvda1115b9l4rHs0ai63Btg7fp3CvtfvLiq6j7rXe95g3n+7VPkdX3Gs99thj7rV2wE5FVzyqcffdd5eLrbjXikdfqtxrjYnj9rHQmlcxuq644gr3WnuyTUfXUfda3nyafYyu+CY+vPm0e63dsBPRFX+IKsZWfAOJu6KxbxTVxFOdY6E1r1J0xR1cfH3da+3PNhVdR91rfeDsy6PfgOnP8Odi8c/PLnKvtbtKR1c8qrH4sg9j8ZOt4r3WUeIRuLHIWrStv304iM8zIta91n5u3dHlXotl7Hp0udfaDyWjK77Rxl9xrRRb1e+1jjLlqcU4sB/7sRnia3rVVVe519rzrSO6vvmn/3YWseVei2XtanS519ov5aIrvuEuvs7WWARl2YV7rePE04ZjoTVvG08tutfqayeJrhe++W9m9z/90uw33Guxol2LrvgG7V5r/5SJrnh0a/FvJI5FUJb45rAr91rHiUeSxkJrkP0ol3utPrdKdP07f/bfn/3ihz8+uykC61XxjdO9Fsvaleiav9eK74nutfZLieiKP2Tzr7U1FkFZdu1ea4rjbroybrnca9ky0fXvXvEfz/7D//7a2V95y9tm//Bf3XcQW7/+R8/ObvmCey1WUzm6Fu+1Irrca+2nrUdXhdutXb7XmirepmcxtuIRrk2/T6J7LRt2bHR9x78z+7P/0X86+0/+l79/EFuDn7rj/tmtp78++60vf3P20ZFvpjBFxeiKe6148+nhXiuO491r7betRVc8pbT4MhBjQbRJ+3CvtYx4y54IrbDpt+9xr2WLOyy6vuM7/73Zd/21/3r2Pf/rT14SW//53/unszf9n78we8enTh/E1mDsGyocp1J0vfDCC5fca8V/716rD1uJrm0/nRj/4t+Xe61q5u+14lFM91o2bDG64l7rP/iv/qdLQit834++ffbfXH/D7Ad++l8cEF2sQ4XoOn/+vHutzqVH15kzZy7GVnZw7eO9VgWL91rxe+xeyxY3RNf8vdbgP/s7/3j2X/zY/z37b3/yn1+MLdHFOm0ruuJeKx5ocK9FSI2ueJopO7h6uNfalsV7rTiONxtbvL7WZ554ZvZjv/7bl8TWX/vhfzL7L//+P5v9dz/1i5fF1kB0sQ7Z0eVeizEp0RWPeszfb43F0bpFbF199dXd3GtlWrzXikcwzMY2//pav3TPudnf+bW7DmJruNcai6xFoot1yIou91ocZePRlR1cYmtz3GvZ1EVsffzsC5e8vlZE1//x/rsvudeaQnSxDpuOLvdaTLHR6Fr8G4pjkbROcbMlttbLvZYts6e//q3ZnaefvyS24vW13v/I87MPPPb87Gc/eu9oWB1FdLEOm4iuxXutePNp91ocZWPRFS8RkPU3FOOlH7Z9IB9hct1111389cbTb7scgO61bJmdfvabs1sf/uolsfXuB796yetrffCLXxNdbM06o2v+Xiu+ibrXYqqNRFdmcMWR/LbiJv65ESaLr7I+PMIX/7OxH1dZxJZ7LZuyOI4f7rXmY+u9Dz03u+3xFy8JpSC62KZ1RNf8vVYcx7vXYllrj66Ijvk3rB4LpXWI2624MRoLh00bwmR4FGgsTCI8I8bGfnxF8Uihey2bsrF7rfAbDz8/u/3sy5cE0jzRxTadJLrim+VwrxXH8e61WNVaoyvraP6GG27YyktARJgMTyHGo0DHhUn858Z+nkrca9nUjd1rhbjXuuPcNy4JozGii21aJbrca7Fua4uurODaxrF8hMnwKNCjjz46OUyqRtfwtKh7LZuysXutOI6fv9eaQnSxTVOjK47j3WuxKWuLrvkXPh2LpXWI4BqLiE2IMIn3ZZy/11p21aLLvZZN3WH3WnEcP3avNYXoYpuOi644jnevxaatJbriBmjTwRWPNo2FxLpFmFxzzTVH3mtNXZXocq9lU7fqvdYUoottOiy64huhey2ynDi64hGgfQiuCJP5R4HWESbxCFm8evvYPy+Dey2bupPea00hutimxehyr8U2nCi6Ml4aYtPBteq91pTFI2VZj9AN3GvZMlvXvdYUoottiuD65fv+xL0WW7VydGUczm8qWNZxrzVlEXHxVOXY57Bu8/da8RYU7rXssA33WmMvZrrqvdYUoottuf3s12e/+nv3zd71wd9zr8VWrRxdmz6c38TR/DrvtaYsfv5Nv1bX/L3Wup4Wtf3ccK+1eBy/jnutKUQX2W4/fX5288c/M/uN37l79p7f+tjst//w82KLrVopuuK58F0Krk3ca01dxNAm7rrm77XW/bSo7dfiXutfP/61S0IrrPNeawrRRZbbHj43e9/v33MQW7d/4tOzT37+i7NPPfb0gbFvhJBl6eiKb+7DHddYMJ1UvPDpWGSsYvFeaxuPAsU/N4Jv7PNb1vy9Vjy1617Ljlrca93+yHOXhNam7rWmEF1s1LmXZr95/5nZv7zrEwexdee9D87+8MyXZg9++dkDoosKlo6uuBfa1KNc8dY+ERZjwbGMeHug+XutbT4KNERqPNo29rlO4V7Lpu64e61txNZAdLEJca9166nPHcTW++/6g9m/vv/zs/ueePpibIkuKlkqujb9tOIb3vCG0eiYKuIkHtna5HH8KovPJR6dWvZpxohH91o2ZUfda33oiZcuiZZtEV2sU9xr3XLPgwePat36//5/s489/Njsj546f1lsDUQXFUyOrk0/rRh/m3AsPKaKHx+fW9X7poimCK/jHvGK/3kc+3t9LZuyo+61PvzU5o/jlyG6WIe413r/x05dcq81FlmLRBcVTI6uTb7q/PXXXz8aIFPE05HxaFDcOMXrhlVePOIV4Rp3a3GbNYjIil9DfG0jtOJrXf3XYtvdUfdamcfxyxBdrOzVe63hOH7xXmsK0UUFk6IrntbaVHCd5I4rnq6LR4TiUaRdeTQoPs+Ir3hEbl7caXn60I5a5XutKUQXy5p6rzWF6KKCSdEVr2m1qeiKu6WxoDpOBFc8XRfBYrbPi3ute8+9WPpeawrRxVTL3mtNIbqo4NjoikdgNhVcq74e1xBclY7lzda9uNcae/PpivdaU4gujrPqvdYUoosKjo2uTT3KterTioLL9n1xr7X45tPV77WmEF2MGrnXuuf02dFwOgnRRQVHRtcmH+Va5WlFwWX7urjXeviZl3f2XmsK0cW8xXut3/70Qyvfa00huqjgyOja1KNc8Tf1xqLqKPGoWARXvISC2b5sX+61phBdhLjXitga7rV+/8EvnPheawrRRQWHRle8ZMGmHuVa5UVQ42UW4m8pmu3DjrrXynjz6W0QXX2Le63hzafjXiuO48fiaFNEFxUcGl0ROJuIrlWO5+MtcOJ1uMx2fYfda93yha/t9L3WFKKrQ+demt324BMbv9eaQnRRwWh0xWtJbSK4Vjmej9uveEFRr8puu7qj7rV+88wLe3GvNYXo6sfBvdZ9j6bda00huqhgNLribmoT0XX11VePhtVhhjuueM9Hs13bUfdacRw/HxI9EF37b1v3WlOILioYja54K5oKj3Jdd911B2+JY7ZL6/FeawrRtb+2fa81heiigsuia1MH9Ms+yuVpRdu1PfHct7q915pCdO2ZQvdaU4guKrgsujbxxtbLPsoV/9l4T0VPK1r1xb1WHMf3fq81hejaDxXvtaYQXVRwWXRt4qnFZf/G4lVXXTWL1wgzq7q414o3n3avNZ3o2m2L91rx5tNV7rWmEF1UcEl0beqpxde//vWjcTVmOJ6PV8M3q7ZnX/q2e60Via7dNH+vddvHPlXyXmsK0UUFl0TXJp5avP7660fj6jDxKJcXQbVqO+xeK2LLvdY0omuHxL3Whdga7rU+fM9nSt9rTSG6qOCS6IoXIF33o1zLvMfi8CjXiy++ePCNzmybO+peK9582r3WckRXfXGvFW8+PdxrxXH8LtxrTSG6qOBidEXorPtRrptuumk0rg4Tj3KdOnXqle94ZlvaYfda733oOfdaJyC66rr98ed2+l5rCtFFBRej68knn1x7dC37MhHxNxbdctm2dti91vs+/5x7rTUQXfV88JGn9+JeawrRRQUXo2t4r8WxeFrVMgf0b3rTm2bxNyfNsudeK4foKmIP77WmEF1UcDG61v1SETfccMNoXB0mXn0+3n7ILGvutXKJru3a53utKUQXFRxE1ybe4PrNb37zaFyNiQP6+Gd79XnL3HxsudfaPNG1HT3ca00huqjgILrijmrd0bXMU4sRaA7oLXtDcLnXyiG6cs3fa0Vs7fO91hSiiwoOouvRRx9da3St8tRiHPKbZW6Irvlv6GyO6EqwcK8Vbz7dw73WFKKLCg6iKx5lWuejXNdee+1oXB0m/tmeWrTsia5comtz5u+1IrZ6u9eaQnRRwUF0rftFUa+88srRuBoTL54a/3yz7ImuXKJr/Q7efPrVe604ju/1XmsK0UUFB9G1zqcWw1hcHSZeEDXefsgse6Irl+han3jzafdayxFdVLD26Hrb2942GleHif/8008//eq3QbO8ia5couvk3GutTnRRwdqja9lXoY9/rvdatG1MdOUSXSs695J7rTUQXVSw9uha5g2u42Ul7rzzzle/BZrlTnTlEl3Lca+1XqKLCi5G11hArWKZ1+eKg/tPfvKTr34LNMud6MoluqZxr7UZoosK1hpdt9xyy2hcHSZeFDXe89FsGxNduUTX0dxrbZboooK1RteyR/TxNxfjhVnNtjHRlUt0jXCvlUZ0UcFao2vZF0UVXbbNia5coqsZu9cSW5sluqhgrdG17N9cvOaaa2Znzpx59VugWe5EVy7R1czfazmOzyG6qGCt0bXMK9GHeDoy3mzbbBsTXblEVxPRNRYGbI7oogLRZd1OdOUSXY3oyie6qGCt0fXa1752NK4OI7psmxNduURXI7ryiS4qWGt0jYXVUUSXbXOiK5foakRXPtFFBaLLup3oyiW6GtGVT3RRgeiybie6comuRnTlE11UILqs24muXKKrEV35RBcViC7rdqIrl+hqRFc+0UUFosu6nejKJboa0ZVPdFGB6LJuJ7pyia5GdOUTXVQguqzbia5coqsRXflEFxWILut2oiuX6GpEVz7RRQWiy7qd6MoluhrRlU90UYHosm4nunKJrkZ05RNdVCC6rNuJrlyiqxFd+UQXFYgu63aiK5foakRXPtFFBaLLup3oyiW6GtGVT3RRgeiybie6comuRnTlE11UILqs24muXKKrEV35RBcViC7rdqIrl+hqRFc+0UUFosu6nejKJboa0ZVPdFGB6LJuJ7pyia5GdOUTXVQguqzbia5coqsRXflEFxWILut2oiuX6GpEVz7RRQWiy7qd6MoluhrRlU90UYHosm4nunKJrkZ05RNdVCC6rNuJrlyiqxFd+UQXFYgu63aiK5foakRXPtFFBaLLup3oyiW6GtGVT3RRgeiybie6comuRnTlE11UILqs24muXKKrEV35RBcViC7rdqIrl+hqRFc+0UUFosu6nejKJboa0ZVPdFGB6LJuJ7pyia5GdOUTXVQguqzbia5coqsRXflEFxWILut2oiuX6GpEVz7RRQWiy7qd6MoluhrRlU90UYHosm4nunKJrkZ05RNdVCC6rNuJrlyiqxFd+UQXFYgu63aiK5foakRXPtFFBaLLup3oyiW6GtGVT3RRgeiybie6comuRnTlE11UILqs24muXKKrEV35RBcViC7rdqIrl+hqRFc+0UUFosu6nejKJboa0ZVPdFGB6LJuJ7pyia5GdOUTXVQguqzbia5coqsRXflEFxWILut2oiuX6GpEVz7RRQWiy7qd6MoluhrRlU90UYHosm4nunKJrkZ05RNdVCC6rNuJrlyiqxFd+UQXFYgu63aiK5foakRXPtFFBaLLup3oyiW6GtGVT3RRgeiybie6comuRnTlE11UILqs24muXKKrEV35RBcViC7rdqIrl+hqRFc+0UUFosu6nejKJboa0ZVPdFGB6LJuJ7pyia5GdOUTXVQguqzbia5coqsRXflEFxWILut2oiuX6GpEVz7RRQWiy7qd6MoluhrRlU90UYHosm4nunKJrkZ05RNdVCC6rNuJrlyiqxFd+UQXFYgu63aiK5foakRXPtFFBaLLup3oyiW6GtGVT3RRgeiybie6comuRnTlE11UILqs24muXKKrEV35RBcViC7rdqIrl+hqRFc+0UUFosu6nejKJboa0ZVPdFGB6LJuJ7pyia5GdOUTXVQguqzbia5coqsRXflEFxWILut2oiuX6GpEVz7RRQWiy7qd6MoluhrRlU90UYHosm4nunKJrkZ05RNdVCC6rNuJrlyiqxFd+UQXFYgu63aiK5foakRXPtFFBaLLup3oyiW6GtGVT3RRgeiybie6comuRnTlE11UILqs24muXKKrEV35RBcViC7rdqIrl+hqRFc+0UUFosu6nejKJboa0ZVPdFGB6LJuJ7pyia5GdOUTXVQguqzbia5coqsRXflEFxWILut2oiuX6GpEVz7RRQWiy7qd6MoluhrRlU90UYHosm4nunKJrkZ05RNdVCC6rNuJrlyiqxFd+UQXFYgu63aiK5foakRXPtFFBaLLup3oyiW6GtGVT3RRgeiybie6comuRnTlE11UILqs24muXKKrEV35RBcViC7rdqIrl+hqRFc+0UUFosu6nejKJboa0ZVPdFGB6LJuJ7pyia5GdOUTXVQguqzbia5coqsRXflEFxWILut2oiuX6GpEVz7RRQWiy7qd6MoluhrRlU90UYHosm4nunKJrkZ05RNdVCC6rNuJrlyiqxFd+UQXFYgu63aiK5foakRXPtFFBaLLup3oyiW6GtGVT3RRgeiybie6comuRnTlE11UILqs24muXKKrEV35RBcViC7rdqIrl+hqRFc+0UUFosu6nejKJboa0ZVPdFGB6LJuJ7pyia5GdOUTXVQguqzbia5coqsRXflEFxWILut2oiuX6GpEVz7RRQWiy7qd6MoluhrRlU90UYHosm4nunKJrkZ05RNdVCC6rNuJrlyiqxFd+UQXFYgu63aiK5foakRXPtFFBaLLup3oyiW6GtGVT3RRgeiybie6comuRnTlE11UILqs24muXKKrEV35RBcViC7rdqIrl+hqRFc+0UUFosu6nejKJboa0ZVPdFGB6LJuJ7pyia5GdOUTXVQguqzbia5coqsRXflEFxWILut2oiuX6GpEVz7RRQWiy7qd6MoluhrRlU90UYHosm4nunKJrkZ05RNdVCC6rNuJrlyiqxFd+UQXFYgu63aiK5foakRXPtFFBaLLup3oyiW6GtGVT3RRgeiybie6comuRnTlE11UILqs24muXKKrEV35RBcViC7rdqIrl+hqRFc+0UUFosu6nejKJboa0ZVPdFGB6LJuJ7pyia5GdOUTXVQguqzbia5coqsRXflEFxWILut2oiuX6GpEVz7RRQWiy7qd6MoluhrRlU90UYHosm4nunKJrkZ05RNdVCC6rNuJrlyiqxFd+UQXFYgu63aiK5foakRXPtFFBaLLup3oyiW6GtGVT3RRgeiybie6comuRnTlE11UILqs24muXKKrEV35RBcViC7rdqIrl+hqRFc+0UUFosu6nejKJboa0ZVPdFGB6LJuJ7pyia5GdOUTXVQguqzbia5coqsRXflEFxWILut2oiuX6GpEVz7RRQWiy7qd6MoluhrRlU90UYHosm4nunKJrkZ05RNdVCC6rNuJrlyiqxFd+UQXFYgu63aiK5foakRXPtFFBaLLup3oyiW6GtGVT3RRgeiybie6comuRnTlE11UILqs24muXKKrEV35RBcViC7rdqIrl+hqRFc+0UUFosu6nejKJboa0ZVPdFGB6LJuJ7pyia5GdOUTXVQguqzbia5coqsRXflEFxWILut2oiuX6GpEVz7RRQWiy7qd6MoluhrRlU90UYHosm4nunKJrkZ05RNdVCC6rNuJrlyiqxFd+UQXFYgu63aiK5foakRXPtFFBaLLup3oyiW6GtGVT3RRgeiybie6comuRnTlE11UILqs24muXKKrEV35RBcViC7rdqIrl+hqRFc+0UUFosu6nejKJboa0ZVPdFGB6LJuJ7pyia5GdOUTXVQguqzbia5coqsRXflEFxWILut2oiuX6GpEVz7RRQWiy7qd6MoluhrRlU90UYHosm4nunKJrkZ05RNdVCC6rNuJrlyiqxFd+UQXFYgu63aiK5foakRXPtFFBaLLup3oyiW6GtGVT3RRgeiybie6comuRnTlE11UILqs24muXKKrEV35RBcViC7rdqIrl+hqRFc+0UUFosu6nejKJboa0ZVPdFGB6LJuJ7pyia5GdOUTXVQguqzbia5coqsRXflEFxWILut2oiuX6GpEVz7RRQWiy7qd6MoluhrRlU90UYHosm4nunKJrkZ05RNdVCC6rNuJrlyiqxFd+UQXFYgu63aiK5foakRXPtFFBaLLup3oyiW6GtGVT3RRgeiybie6comuRnTlE11UILqs24muXKKrEV35RBcViC7rdqIrl+hqRFc+0UUFosu6nejKJboa0ZVPdFGB6LJuJ7pyia5GdOUTXVQguqzbia5coqsRXflEFxWILut2oiuX6GpEVz7RRQWiy7qd6MoluhrRlU90UYHosm4nunKJrkZ05RNdVCC6rNuJrlyiqxFd+UQXFYgu63aiK5foakRXPtFFBaLLup3oyiW6GtGVT3RRgeiybie6comuRnTlE11UILqs24muXKKrEV35RBcViC7rdqIrl+hqRFc+0UUFosu6nejKJboa0ZVPdFGB6LJuJ7pyia5GdOUTXVQguqzbia5coqsRXflEFxWILut2oiuX6GpEVz7RRQWiy7qd6MoluhrRlU90UYHosm4nunKJrkZ05RNdVCC6rNuJrlyiqxFd+UQXFYgu63aiK5foakRXPtFFBaLLup3oyiW6GtGVT3RRgeiybie6comuRnTlE11UILqs24muXKKrEV35RBcViC7rdqIrl+hqRFc+0UUFosu6nejKJboa0ZVPdFGB6LJuJ7pyia5GdOUTXVQguqzbia5coqsRXflEFxWILut2oiuX6GpEVz7RRQWiy7qd6MoluhrRlU90UYHosm4nunKJrkZ05RNdVCC6rNuJrlyiqxFd+UQXFYgu63aiK5foakRXPtFFBaLLup3oyiW6GtGVT3RRgeiybie6comuRnTlE11UILqs24muXKKrEV35RBcViC7rdqIrl+hqRFc+0UUFosu6nejKJboa0ZVPdFGB6LJuJ7pyia5GdOUTXVQguqzbia5coqsRXflEFxWILut2oiuX6GpEVz7RRQWiy7qd6MoluhrRlU90UYHosm4nunKJrkZ05RNdVCC6rNuJrlyiqxFd+UQXFYgu63aiK5foakRXPtFFBaLLup3oyiW6GtGVT3RRgeiybie6comuRnTlE11UILqs24muXKKrEV35RBcViC7rdqIrl+hqRFc+0UUFosu6nejKJboa0ZVPdFGB6LJuJ7pyia5GdOUTXVQguqzbia5coqsRXflEFxWILut2oiuX6GpEVz7RRQWiy7qd6MoluhrRlU90UYHosm4nunKJrkZ05RNdVCC6rNuJrlyiqxFd+UQXFYgu63aiK5foakRXPtFFBaLLup3oyiW6GtGVT3RRgeiybie6comuRnTlE11UILqs24muXKKrEV35RBcViC7rdqIrl+hqRFc+0UUFosu6nejKJboa0ZVPdFGB6LJuJ7pyia5GdOUTXVQguqzbia5coqsRXflEFxWILut2oiuX6GpEVz7RRQWiy7qd6MoluhrRlU90UYHosm4nunKJrkZ05RNdVCC6rNuJrlyiqxFd+UQXFYgu63aiK5foakRXPtFFBaLLup3oyiW6GtGVT3RRgeiybie6comuRnTlE11UILqs24muXKKrEV35RBcViC7rdqIrl+hqRFc+0UUFosu6nejKJboa0ZVPdFGB6LJuJ7pyia5GdOUTXVQguqzbia5coqsRXflEFxWILut2oiuX6GpEVz7RRQWiy7qd6MoluhrRlU90UYHosm4nunKJrkZ05RNdVCC6rNuJrlyiqxFd+UQXFYgu63aiK5foakRXPtFFBaLLup3oyiW6GtGVT3RRgeiybie6comuRnTlE11UILqs24muXKKrEV35RBcViC7rdqIrl+hqRFc+0UUFosu6nejKJboa0ZVPdFGB6LJuJ7pyia5GdOUTXVQguqzbia5coqsRXflEFxWILut2oiuX6GpEVz7RRQWiy7qd6MoluhrRlU90UYHosm4nunKJrkZ05RNdVCC6rNuJrlyiqxFd+UQXFYgu63aiK5foakRXPtFFBaLLup3oyiW6GtGVT3RRgeiybie6comuRnTlE11UILqs24muXKKrEV35RBcViC7rdqIrl+hqRFc+0UUFosu6nejKJboa0ZVPdFGB6LJuJ7pyia5GdOUTXVQguqzbia5coqsRXflEFxWILut2oiuX6GpEVz7RRQWiy7qd6MoluhrRlU90UYHosm4nunKJrkZ05RNdVCC6rNuJrlyiqxFd+UQXFYgu63aiK5foakRXPtFFBaLLup3oyiW6GtGVT3RRgeiybie6comuRnTlE11UILqs24muXKKrEV35RBcViC7rdqIrl+hqRFc+0UUFosu6nejKJboa0ZVPdFGB6LJuJ7pyia5GdOUTXVQguqzbia5coqsRXflEFxWILut2oiuX6GpEVz7RRQWiy7qd6MoluhrRlU90UYHosm4nunKJrkZ05RNdVCC6rNuJrlyiqxFd+UQXFYgu63aiK5foakRXPtFFBaLLup3oyiW6GtGVT3RRgeiybie6comuRnTlE11UILqs24muXKKrEV35RBcViC7rdqIrl+hqRFc+0UUFosu6nejKJboa0ZVPdFGB6LJuJ7pyia5GdOUTXVQguqzbia5coqsRXflEFxWILut2oiuX6GpEVz7RRQWiy7qd6MoluhrRlU90UYHosm4nunKJrkZ05RNdVCC6rNuJrlyiqxFd+UQXFYgu63aiK5foakRXPtFFBaLLup3oyiW6GtGVT3RRgeiybie6comuRnTlE11UILqs24muXKKrEV35RBcViC7rdqIrl+hqRFc+0UUFosu6nejKJboa0ZVPdFGB6LJuJ7pyia5GdOUTXVQguqzbia5coqsRXflEFxWILut2oiuX6GpEVz7RRQWiy7qd6MoluhrRlU90UYHosm4nunKJrkZ05RNdVCC6rNuJrlyiqxFd+UQXFYgu63aiK5foakRXPtFFBaLLup3oyiW6GtGVT3RRgeiybie6comuRnTlE11UILqs24muXKKrEV35RBcViC7rdqIrl+hqRFc+0UUFosu6nejKJboa0ZVPdFGB6LJuJ7pyia5GdOUTXVQguqzbia5coqsRXflEFxWILut2oiuX6GpEVz7RRQWiy7qd6MoluhrRlU90UYHosm4nunKJrkZ05RNdVCC6rNuJrlyiqxFd+UQXFYgu63aiK5foakRXPtFFBaLLup3oyiW6GtGVT3RRgeiybie6comuRnTlE11UILqs24muXKKrEV35RBcViC7rdqIrl+hqRFc+0UUFosu6nejKJboa0ZVPdFGB6LJuJ7pyia5GdOUTXVQguqzbia5coqsRXflEFxWILut2oiuX6GpEVz7RRQWiy7qd6MoluhrRlU90UYHosm4nunKJrkZ05RNdVCC6rNuJrlyiqxFd+UQXFYgu63aiK5foakRXPtFFBaLLup3oyiW6GtGVT3RRgeiybie6comuRnTlE11UILqs24muXKKrEV35RBcViC7rdqIrl+hqRFc+0UUFosu6nejKJboa0ZVPdFGB6LJuJ7pyia5GdOUTXVQguqzbia5coqsRXflEFxWILut2oiuX6GpEVz7RRQWiy7qd6MoluhrRlU90UYHosm4nunKJrkZ05RNdVCC6rNuJrlyiqxFd+UQXFYgu63aiK5foakRXPtFFBaLLup3oyiW6GtGVT3RRgeiybie6comuRnTlE11UILqs24muXKKrEV35RBcViC7rdqIrl+hqRFc+0UUFosu6nejKJboa0ZVPdFGB6LJuJ7pyia5GdOUTXVQguqzbia5coqsRXflEFxWILut2oiuX6GpEVz7RRQWiy7qd6MoluhrRlU90UYHosm4nunKJrkZ05RNdVCC6rNuJrlyiqxFd+UQXFYgu63aiK5foakRXPtFFBaLLup3oyiW6GtGVT3RRgeiybie6comuRnTlE11UILqs24muXKKrEV35RBcViC7rdqIrl+hqRFc+0UUFosu6nejKJboa0ZVPdFGB6LJuJ7pyia5GdOUTXVQguqzbia5coqsRXflEFxWILut2oiuX6GpEVz7RRQWiy7qd6MoluhrRlU90UYHosm4nunKJrkZ05RNdVCC6rNuJrlyiqxFd+UQXFYgu63aiK5foakRXPtFFBaLLup3oyiW6GtGVT3RRgeiybie6comuRnTlE11UILqs24muXKKrEV35RBcViC7rdqIrl+hqRFc+0UUFosu6nejKJboa0ZVPdFGB6LJuJ7pyia5GdOUTXVQguqzbia5coqsRXflEFxWILut2oiuX6GpEVz7RRQWiy7qd6MoluhrRlU90UYHosm4nunKJrkZ05RNdVCC6rNuJrlyiqxFd+UQXFYgu63aiK5foakRXPtFFBaLLup3oyiW6GtGVT3RRgeiybie6comuRnTlE11UILqs24muXKKrEV35RBcViC7rdqIrl+hqRFc+0UUFosu6nejKJboa0ZVPdFGB6LJuJ7pyia5GdOUTXVQguqzbia5coqsRXflEFxWILut2oiuX6GpEVz7RRQWiy7qd6MoluhrRlU90UYHosm4nunKJrkZ05RNdVCC6rNuJrlyiqxFd+UQXFYgu63aiK5foakRXPtFFBaLLup3oyiW6GtGVT3RRgeiybie6comuRnTlE11UILqs24muXKKrEV35RBcViC7rdqIrl+hqRFc+0UUFosu6nejKJboa0ZVPdFGB6LJuJ7pyia5GdOUTXVQguqzbia5coqsRXflEFxWILut2oiuX6GpEVz7RRQWiy7qd6MoluhrRlU90UYHosm4nunKJrkZ05RNdVCC6rNuJrlyiqxFd+UQXFYgu63aiK5foakRXPtFFBaLLup3oyiW6GtGVT3RRgeiybie6comuRnTlE11UILqs24muXKKrEV35RBcViC7rdqIrl+hqRFc+0UUFosu6nejKJboa0ZVPdFGB6LJuJ7pyia5GdOUTXVQguqzbia5coqsRXflEFxWILut2oiuX6GpEVz7RRQWiy7qd6MoluhrRlU90UYHosm4nunKJrkZ05RNdVCC6rNuJrlyiqxFd+UQXFYgu63aiK5foakRXPtFFBaLLup3oyiW6GtGVT3RRgeiybie6comuRnTlE11UILqs24muXKKrEV35RBcViC7rdqIrl+hqRFc+0UUFosu6nejKJboa0ZVPdFGB6LJuJ7pyia5GdOUTXVQguqzbia5coqsRXflEFxWILut2oiuX6GpEVz7RRQWiy7qd6MoluhrRlU90UYHosm4nunKJrkZ05RNdVCC6rNuJrlyiqxFd+UQXFYgu63aiK5foakRXPtFFBaLLup3oyiW6GtGVT3RRgeiybie6comuRnTlE11UILqs24muXKKrEV35RBcViC7rdqIrl+hqRFc+0UUFosu6nejKJboa0ZVPdFGB6LJuJ7pyia5GdOUTXVQguqzbia5coqsRXflEFxWILut2oiuX6GpEVz7RRQWiy7qd6MoluhrRlU90UYHosm4nunKJrkZ05RNdVCC6rNuJrlyiqxFd+UQXFYgu63aiK5foakRXPtFFBaLLup3oyiW6GtGVT3RRgeiybie6comuRnTlE11UILqs24muXKKrEV35RBcViC7rdqIrl+hqRFc+0UUFosu6nejKJboa0ZVPdFGB6LJuJ7pyia5GdOUTXVQguqzbia5coqsRXflEFxWILut2oiuX6GpEVz7RRQWiy7qd6MoluhrRlU90UYHosm4nunKJrkZ05RNdVCC6rNuJrlyiqxFd+UQXFYgu63aiK5foakRXPtFFBaLLup3oyiW6GtGVT3RRgeiybie6comuRnTlE11UILqs24muXKKrEV35RBcViC7rdqIrl+hqRFc+0UUFosu6nejKJboa0ZVPdFGB6LJuJ7pyia5GdOUTXVQguqzbia5coqsRXflEFxWILut2oiuX6GpEVz7RRQWiy7qd6MoluhrRlU90UYHosm4nunKJrkZ05RNdVCC6rNuJrlyiqxFd+UQXFYgu63aiK5foakRXPtFFBaLLup3oyiW6GtGVT3RRgeiybie6comuRnTlE11UILqs24muXKKrEV35RBcViC7rdqIrl+hqRFc+0UUFosu6nejKJboa0ZVPdFGB6LJuJ7pyia5GdOUTXVQguqzbia5coqsRXflEFxWILut2oiuX6GpEVz7RRQWiy7qd6MoluhrRlU90UYHosm4nunKJrkZ05RNdVCC6rNuJrlyiqxFd+UQXFYgu63aiK5foakRXPtFFBaLLup3oyiW6GtGVT3RRgeiybie6comuRnTlE11UILqs24muXKKrEV35RBcViC7rdqIrl+hqRFc+0UUFosu6nejKJboa0ZVPdFGB6LJuJ7pyrRpdN37m7CU/z1jE7BrRlU90UYHosm4nunKtEl3/w//1K7Nfe+CpS36esYjZNaIrn+iiAtFl3U505Voluv7mL75v9t6Hvnzx5/itC8YiZteIrnyiiwpEl3U70ZVr1eh6/yPPXPw5PnLBWMTsGtGVT3RRgeiybie6ct386PnZT9x612hcHebH3vfbB7E2/Bx3PP3N0YjZNaIrn+iiAtFl3U505YpHrCKixuLqMBFpH37qpYs/xx0XjEXMrhFd+UQXFYgu63aiK9cq0fVPfve+iz/+zgvGAmYXia58oosKRJd1O9GVKw7i/+677xiNq8O8674nLvk5xgJmF4mufKKLCkSXdTvRlSte+iEO48fiaky8XETcgQ0/fl+O6IPoyie6qEB0WbcTXbl+5dSZ2Q++/abRwBpzzS/fOrv97AsXf/y+HNEH0ZVPdFGB6LJuJ7ryxDF8vJ3PWFwd5u/f8nsXf/w+3XMF0ZVPdFGB6LJuJ7ry/OaZ55Z+ja5//onPX/zx+/KiqAPRlU90UYHosm4nuvL8y8/98dJ/czFCbfjxoouTEl1UILqs24muPPGm1XGjNRZXY/7WL918yY//8B7dcwXRlU90UYHosm4nunJ85EvfWPqe62d+61MXf/y+PcoVRFc+0UUFosu6nejKcevpZ2f/6MOfHI2rw+zjm1zPE135RBcViC7rdqIrx7sfPLfUi6Je/fPvueTH79tTi0F05RNdVCC6rNuJrs0bnlqMFzodC6wx13/oYxd//D4+yhVEVz7RRQWiy7qd6Nq8eEX5kzy1uE8viDpPdOUTXVQguqzbia7N+9VPf3H2lhs/NBpXYy5/anE/ia58oosKRJd1O9G1WR/84tdm/+z3HxyNq8P89Efuufjj9/WpxSC68okuKhBd1u1E12bFAf2yL4h6yxde+f145W1/9vOpxSC68okuKhBd1u1E1+bEey3G2/gsc0D/997zkYs//iPxc+wx0ZVPdFGB6LJuJ7o2J47hl32U65fu+cLBj933R7mC6MonuqhAdFm3E12bEbdcyz7KNX9Av8+3XAPRlU90UYHosm4nujbj1x54aulHuX7hYw8d/Nh4lOuOC8ZCZZ+IrnyiiwpEl3U70bV+v3nmuYO/sbjMo1z/4z/+1dntZ184+PH7fss1EF35RBcViC7rdqJrveLV53/l1JnZNb9862hcHWZ4mYgebrkGoiuf6KIC0WXdTnSt17/83B8v/erzPT7KFURXPtFFBaLLup3oWp94WnHZ4/kw/2KovTzKFURXPtFFBaLLup3oWo9Vn1acf5Srh7+xOE905RNdVCC6rNuJrvW48TNnZ9d98O7RsDrK8DcWw1iY7DPRlU90UYHosm4nuk4uXgT1n/7eZ0aj6ig/9C/ef/HnuOPL42Gyz0RXPtFFBaLLup3oOpmbHz2/0h1XiEfH4ufo6Xh+nujKJ7qoQHRZtxNdq7v19LMHwRWvJD8WVUeZf4/Fno7n54mufKKLCkSXdTvRtZqTBNf88fwdnQZXEF35RBcViC7rdqJreScJrtDz8fw80ZVPdFGB6LJuJ7qW8/5HnjlRcHlasRFd+UQXFYgu63aia5p4Ha74W4rxnoqrBpenFS8luvKJLioQXdbtRNfxIpTibxr+7EfvXelvKQ5+6Z4vXPw5xyKkN6Irn+iiAtFl3U50HS4e3YqnE9/xqdOzv/vuO0ZDaqrrP/Sxg5+zt1edP4royie6qEB0WbcTXePiWP5XP/3Fg0e3fvDtN42G1FTDi6DeeUGPL4J6GNGVT3RRgeiybie6mnhka4ituN1a9n0Ux/T83orHEV35RBcViC7rdqLrQgA89dLB04jxhtXxyNZbbvzQaECtIo7v458huC4nuvKJLioQXdbteo6uiK2IorjZijer/pu/+L7RcFrV8Hpcgmuc6Er0pWdn9509L7ooQXRZt+sxuj74xa/Nfu2Bpw5eb+snbr3rxDdbY4bgOrjjumAsOnonuhJ86Suz+554ZnbvmVdiS3RRgeiybtdTdM3fa8XfRjzJyz8c5cdv/t2L/0yvx3U40bU5f/TUK7E1H1rh8+fOz54+/9XRb4SQRXRZt9v36Bpe9mET91pj5oPL04pHE13r98CT52d/+MU/uSS0Tj3+x7PTXzo/e+ZZsUUNosu63b5G16bvtcYIruWIrjX50rOz+89eiK0zf3xJbH3mQmw98cdfmX3lq+Pf+GBbRJd1u32Lrox7rTHzwRXGIoNLia4T+tJXZp8+e/m91oNn/2R27k++MvrNDioQXdbt9iW6su61xgxH8+GVR7jccU0hulZz1L3Wl595dvSbHFQiuqzb7XJ0Zd9rLYoXPp0PrvibioJrOtG1nMPutR69EFvutdglosu63S5G1/y91j/68CdT7rUW/c8/9+sXX/g0eIuf5YmuCY6413r8afda7CbRZd1ul6Jr/l4rjuOz7rUW/W/v/M3Zb5557uLnJbhWI7qOcMS9VhzHj30jg10huqzb7UJ0zd9r/dj7fjv1Xmte/HMj9ob3UhwIrtWIrsu516IHosu6XdXomr/X+qe/95n0e61F//u7Pjj7fz77pcs+Ty8NsTrR1dx/Ibbca9EL0WXdrlp0VbjXmrd4LD9PcJ1M99H1pVeP491r0RnRZd2uSnRVudcaRGz99EfuueypxIG39zm5bqMr3g/x7Hn3WnRLdFm323Z0VbnXGhwVW/HIlvut9ektuv7onHstCKLLut02oqvavVa4+uffM/snv3vfZbEVfzPxIxfcccFYOLC6XqLrsHutiC33WvTm3Llzosv6XWZ0DfdaEVsV7rVCHMgfdrMVseXFTjdnr6PriHutePNp91r05vHHH5996lOfOgiuBx54QHRZn8uIrrjXeveD58rca4V4r8QbP3P2ss81nkJ0IJ9jL6PrkHutB55wr0V/om0eeeSRi7EV//0LL7wQ33peI7qsy20yuuJeK8Km0r3W9R/62OyWL4z/eh3H59qn6DrsXuvhJ//EvRbdeeaZZ2af/exnZ5/4xCdmn/zkJ2dPPPHE7OWXX45vOa8ZiC7rcuuOruFeK47jq99rhYPj+AvGooDN2ofocq8FTdxrxVOH8ajWvffeO3v66adn3/72t+NbzcXYGogu63Lriq5dutcajuPda23XzkaXey24RNxrnTp16uK91vnz5+Pby2WhNU90WZc7aXTt0r1WeOVeS2xVsHPRdSG23GvBK46615pCdFmXWzW6du1ey3F8PTsTXXEc714LDky515pCdFmXWya6dvNey6NaVVWPrnjzafda8IrFe62nnnrq0HutKUSXdbkp0TV/r/WzH723/L2W4/jdUDW63GtBs3ivFcfxFzYaUssQXdbljoqu4V4r3ny6+r2W4/jdUyq6DrnXithyr0Vvxu614uMXNhpQqxBd1uXGomu414rjePdabEqJ6DrkXivefNq9Fr2Je62HH3744r3WY489ttK91hSiy7rcEF3z91pxHF/9Xiu88sgWu2qb0TV2rxXca9GjuNeK4/h13WtNIbqsy73zD/949va7Ht2Je63gOH5/bCO6xu614jjevRY9inut++67b+33WlOILutq8WcujiP/4b+6b/a3fumOEvdaf+89Hzn0Xiv+q+P4/ZIWXe614KL4d//p06c3eq81heiyLvbkk0/O7r777tnNN988u+qqq2bf+3ffPvsrb3nbaARliHutOI4/7F7Lcfz+2nh0udeCizLvtaYQXba3+9a3vjV79NFHZ3fdddfsxhtvnL3pTW+6+Ocvgmsb0RX3Wj/9kXsOvddyHL//NhVd7rWg2ca91hSiy/ZuL7744uyhhx6a3XnnnQd/zq688srL/vxlR9cP/Yv3H3qvFdxr9WPd0RX3WnGfNR9a7rXo1TbvtaYQXbY3iz9P999//yz+TL/1rW+dvf71rx/9sxeyouuwe61wcBz/5fFvzOyvtUTXq/daYy9m6l6L3sS/++fvteL/6I6PX9ho+GyT6LKdX9xrxXP1w73Wa1/72tE/c/M2GV1H3Ws5judE0fXqvdbicbx7LXq0eK8Vx/HbvNeaQnTZTi7utc6cOTN6rzXFJqLruHstx/GEVaIr7rU+7V4LDizea8WbT1e415pCdNlObcq91hTrjK6j7rXiKUTH8cxbJrqOutcSW/Tm7NmzF++14r9Wu9eaQnTZTiz+rEy915piHdF11L1WcBzPmGOj65h7Lcfx9CT+3R/H8btwrzWF6LLSW+Vea4pVo+u419d65ZXjx7/ZQjg0uo641zr3J47j6Uvca8WN1i7da00huqzcTnqvNcWy0XXUvVYcx8e9lthiisXoOupe6+nznkKkL/GU4a7ea00huqzMFu+13vjGN47+2VmHqdF13OtrvXKv5WlEphuiy70WNPtwrzWF6LKtL/4czN9rXXHFFaN/ZtbpuOg67l7LcTyruP1L35q9+yP/2r0WXBD/7t+ne60pRJdtbYv3Wic9jl/GWHRNu9fyqBbL++C5b8ze++jXZr/ywLOzd33w9y7GlnsterSv91pTiC5L3di91rqO45cxH11T3g/RvRar+MDZl2fvfuRrs3fc/5WLIrrca9Gj+XutiK19u9eaQnRZyjLvtaaI4Pr+n/jFQ++1huN491qs4ubHX5zd9PBzl8TWjQ8+O7v3yy/N7vr9j41+Q4J9NX+vFcfx+3qvNYXoso0ufo+z77WO8/3f//2zn/3oZ2c3XfhGOBZc7rVYRdxrve+xF2bvfPCrl8TWex/+6uzzz35j9o0//bfxvxKviW88Y9+YYJ/Ev/vn77Xizafj4/G/Az0TXbaRbfNe6zA/9EM/NPvCF74Qn95rIrgWo+uVR7ZgOfP3WvOxdfvp5w9iK/68zRNd7LP4vj7ca8Wf9Z7utaYQXba2xb1WxNa277Xmve51r5v91E/91MHh5oVd/IM/RJfjeFY1dq8V7jr7wuzc1w+/UxFd7KP4d2zv91pTiC478eJe69FHHy1zrxW++7u/e/aud73rIAQv7LI/+O+68M3xVz7zldFvpnCUw+61Pn7uxdnXvvlvLvzxuvzP2zzRxT6JN592rzWd6LKV9/zzz5e71/q+7/u+2Uc/+tH49Eb/wA+Gb5Zj31Rh0VH3Wg888/LFe60pRBf7wL3WakSXLb34v2Sq3Wv94A/+4Oxzn/tcfHqjf9AXiS6mWPZeawrRxa5yr3VyossmreK9Vvzzf+InfuKye60pRBdHue3Jb6x0rzWF6GLXuNdaH9FlR67ivdaf+3N/bvaOd7zj0HutKYZvomPfcOnXLV986UT3WlOILnaFe631E102uor3Wt/7vd97cK91ktgaiC4Gca8Vx/HruNeaQnRRnXutzRFddsmq3mt9+tOfjk9v9A/xKkQXca/1G6dfWOu91hSii4rG7rVeeOGFC39kx/8csxrRZWXvtX70R3/04O0jLmz0D+9JiK5+HXav9dHHv37ie60pRBeVjN1rOY7fHNHV8RbvtSK2xn6vMsUjaz/3cz938Lld2Ogf2nUYvtGOfVNmPx12rxXH8eu615pCdFHB2L2W4/jNE10dbvFe68orrxz9Pcr0l//yX57ddttta7nXmkJ09eGoe6148+l132tNIbrYprjXOnXq1MV7rfPnz1/4Yzn+Z5X1E10dbf5e65prrilxr/UDP/ADa7/XmkJ07bfD7rVueeS5jd5rTSG6yDbcaw3H8e61tkd07fkW77Xe/OY3l7jX+uEf/uHZY489Fp/i6B/MTRNd+2nb91pTiC6yDPdacRzvXqsG0bWnq3yvtanj+GUM34zHvnGze6rca00huti0uNeKpw7jz5p7rVpE156t6r3WL//yL2/8OH4Zoms/VLvXmkJ0sSnuteoTXXuyqvda8Uhb1nH8MkTX7orj+Kr3WlOILtbJvdZuEV07vor3Wn/7b//trRzHL0N07Z44jq9+rzWF6GIdFu+14kbWvVZ9omsHF48cVbzX+pmf+ZkS91pTDN+wx765U8sHzr68M/daU4guTmLxXuupp55yr7VDRNcOLW6iqt1rxecQ91pxS3Zho3/IKhJd9Y3da0VsVb7XmkJ0sYrFe604KVn8s0V9omsHFl+navdaf/2v//WD+Kt0HL8M0VXTYfdacRy/C/daU4gupop/9y/ea8XHF/9MsTtEV+FVvde65557Sh7HL0N01XLYvVa8+fQu3WtNIbo4TtxrPfzww+619pDoKraq91o/+ZM/Ofv85z8fn+LoH6RdM3xTHwsA8ozda4VdvdeaQnRxmLjXGt582r3WfhJdRVb1Xuvnf/7nh9+n0T9Au2r45j4WAmzevt5rTSG6WBT3WsObT7vX2m+ia8uLr0G1e614dO1DH/rQzt5rTSG68vVwrzWF6CLEv/tPnz7tXqszomtLm7/Xuuqqq0rca/2Nv/E3Zn/wB3+w17E1EF15errXmkJ09c29Vt+2Fl3xFNqZM2cufA79bP5e64Ybbihzr/UP/sE/OLjX2vXj+GUM3/jHIoH1iHutX//c85fF1j7fa00huvrkXouwteiKR3ciQHrY/L3WddddV+peKx5xu7DRPxz7bAiAsVjgZOJe68bP9nmvNYXo6sv8vVb8V/dafRNdG9z8vVY8slflXuvWW28dntod/UPRA9G1XsO91tibT/d0rzWF6Np/i/daDz300MHHF/8s0J+tRVe87lQ8+rOPq3ivFZ/H7/zO73RxrzWF6FqP4V5r8Ti+13utKUTX/lq814rjePdazNtadMXTW/GHcl9W9V7rLW95y8FD2j3da00huk7mqHutZ1760wtf4vGvO6JrH8VThvP3Wk888YR7LUYdRNc6wmvsm/5R4tGX+Ofu+qrea8VxfDziJrbGDZEwFhQc7qh7rZ6P45chuvZHvMG/ey2WsbXoCvH026tvlLxzq3qv9c53vtP/4k8guqY77l7LcfxyRNdui3/3x3G8ey1WsdXo2sWXjYhHj+6+++5S91pxHxf3Wr0fxy9DdB3vqHutM89988KXcfxry9FE126Ke6240XKvxUlsNbre+MY3HgRM9Q33WnEcX+1eK/4F4Dh+eaLrcO61Nkt07Rb3WqzTayIk1hFdb3jDGy4Lgyni6blXo6HchnutOI6vdK/14z/+4wcR6F5rdUNIjEVHr+Jea/HNp91rrZ/o2g3utdiE18TDpOuIrlWDJN5vsNpLR8TTdKdOnSp3r/ULv/AL3b6Y6bqJrlfEvdb7HnOvlUl01eVei017TTxiso6nGOOuaCwWjhNBE//sCo92Vb3Xuv32291rrVnv0RX3Wu991L3WNoiueubvteL3x70Wm/KaeMh0HdF19dVXXxYNU8WjXfHI0jZW9V4rvibxL4BX/3bn6G8eq+s1uuJea+zNp91r5RFddczfa8WzPu612LTXRHSsI7re9ra3XRYPU8UjOvHo0qtPnaWs8r1WPKTtOH6zhtgYC5N95F6rDtG1ffP3WnEc716LLAf/TzyldtLouuWWWy6LiGVcccUVBwG06dftqnyv5Tg+Tw/RddS91gPPvOxea0tE1/bM32s98MADBx9b/P2BTTr4f+KRlXU82rXq32AcRHxsKryGe62IrUr3Wh/4wAccx2/BPkfXUfda3nx6+0RXrvg/tN1rUcXB/xN/KNcRXase088bwmsdTzXO32vF05eV7rV+93d/13H8Fu1jdB11r+XNp+sQXTniON69FtVc/G8idE4aXddff/1lkbGKuG2KSIqnAVf5W43z91pxa1blXiuezozPy73W9g1BMhYvu+awe62Pn3vRvVZBomuzzp07516Lsi7+N+t6inFdT9vFzxNPA8bTgRFf8cjXq/dOo4tHjeJRreEpxEr3Wm9/+9sPPjexVceuR5d7rd0lujbDvRa74OJ/E3dU64iudT+FN9w+xSNW8bnFo1fxUPFgeEX9eLmHCK14a6GxnydTfM7xdXjf+9538N6SjuPr2dXoinutePNp91q7S3Stj3stds0l/5+ImJNGV8TPWIisSzx6FU/VDeJvPY7957YhPrd4dC7utRzH17Zr0XXbk6+8+fR8aAX3WrtHdJ2cey121SX/nwiFdTzaddK/xbhrIvziUbZ4GtRx/G4YomUscCq55YsvudfaM6Jrde612HWXfWAdb4D9Iz/yI5eFyT6KpzLjaU/H8buncnTFvVYcx7vX2k+ia3mL91rnz5+/8KUc//pCZZd9YF2PdlU4Yt+E4V7rPe95jxcz3WEVo+uwe61bHnnOvdYeEV3TjN1rvfDCCxe+hONfV9gFox8cbrtOEl4neVugioZ7rfiazP1NytGvH/VViq7D7rU++vjX3WvtIdF1tLF7Lcfx7IvRD67rbzJW+JuEJzXca8X/8rsf2B9D2IxFUJbD7rXiON691v4SXePiXiueOoyvz3Cv5TiefTP6wRBPnZ00vOL9GNf1ul3Z5u+1HMfvn21F11H3WvHm0+619p/oulTca8VfQoqvi3st9t3oBwe9Pc04f6/lOH6/ZUeXey0Goqvdaw3H8e616MXoBwdxtzT8bcaThNe11157WeBUMtxr3XbbbY7jO5EVXe61WNRzdA33WnEc716LHo1+cF7cdw3vy3iS8Fr3K9Wvw3CvFWHpxUz7MsTPWCitQ7z5tHstxvQYXe614BWjH1y0rvCKt/MZi59sw72W4/h+bSq63GtxnJ6iy70WXGr0g2MivNbxVOO2Xjh1uNe68cYbD+614tez+GukH+uMrjiOd6/FVPseXe614HCjHzxM3DrNH9evGl/x/oxZbxU0f6/10EMPOY7nwDqiK47j3WuxrH2NrsV7rccee8y9FiwY/eBxzpw5c8nTjavG19VXX72xl5SYv9dyHM+iIZDGYuo4Y/dawb0WU+xbdC3eaz311FPuteAQox+cIh4xWnzUa5X4itfyir/duI63DYqfI+7G4pG0uCNwr8VhhlAai6rDjN1rxXG8ey2WsS/RtXiv5d+3cLzRDy4jnr8fi69VAixiKR79uvLKKy8LqjERWXEUf80111wMLW/RwxRTo+uwe604jnevxSp2Obri3/enT5++5F4rPr74awTGjX5wFfHIV9xMzR/bjxmLrTHxn7355psP/pbhogis+J/ffffdB/9M/xcWyzouug6717r99PPutTiRXYyuuNd6+OGH3WvBCY1+8KTibwbGHdVhj4CtImIuHsmKnzf+ry2PZnESQ0QtxtZR91pfd6/FGuxSdMW91vDm0+614ORGP7huEWERShFMIV6yIYJsTDxyNfzn4seExZ8PTmqIqSG23GuRZReiK+617rvvPvdasGajH4R9N4SVey2yVY0u91qweaMfhH03H1kD91pkqBZd7rUgz+gHYd/Nx5bX1yJTlehavNeKN592rwWbNfpB2HfutdiWbUfX/L1W/Ff3WpBn9IMAbMY2omvxXiv+wlJ8fPFzAzZr9IMAbEZmdMW9VhzED/da8d+714LtGf0gAJuREV3xlKF7Lahn9IMAbMYmo+vs2bPutaCw0Q8CsBnrjq6414rjePdaUN/oBwHYjHVFl3st2D2jHwRgM04aXe61YHeNfhCAzVg1utxrwe4b/SAAm7FMdC3ea8WbT8fHF39OYDeMfhCAzZgSXfP3WvGfd68F+2H0gwBsxlHRNX+vFcfx7rVgv4x+EIDNGIuuePPp4V4rjuPda8F+Gv0gAJsxH13utaAvox8EYDMisNxrQZ9GPwjAZkRoudeCHs1e8/8DfI0sMil0YuUAAAAASUVORK5CYII=;" parent="1" vertex="1">
          <mxGeometry x="320" y="40" width="347.37" height="480" as="geometry" />
        </mxCell>
        <mxCell id="Ksmy3lqjPyIy8pXsrAGs-3" value="" style="endArrow=classic;html=1;rounded=0;" parent="1" target="Ksmy3lqjPyIy8pXsrAGs-5" edge="1">
          <mxGeometry width="50" height="50" relative="1" as="geometry">
            <mxPoint x="380" y="560" as="sourcePoint" />
            <mxPoint x="370" y="570" as="targetPoint" />
          </mxGeometry>
        </mxCell>
        <mxCell id="Ksmy3lqjPyIy8pXsrAGs-4" value="UIScreen" style="edgeLabel;html=1;align=center;verticalAlign=middle;resizable=0;points=[];labelBackgroundColor=none;fontStyle=1;fontSize=23;" parent="Ksmy3lqjPyIy8pXsrAGs-3" vertex="1" connectable="0">
          <mxGeometry x="-0.586" relative="1" as="geometry">
            <mxPoint x="3" y="36" as="offset" />
          </mxGeometry>
        </mxCell>
        <mxCell id="Ksmy3lqjPyIy8pXsrAGs-5" value="" style="rounded=0;whiteSpace=wrap;html=1;fillColor=none;strokeColor=none;" parent="1" vertex="1">
          <mxGeometry x="340" y="430" width="40" height="40" as="geometry" />
        </mxCell>
        <mxCell id="Ksmy3lqjPyIy8pXsrAGs-6" value="" style="endArrow=classic;html=1;rounded=0;" parent="1" target="Ksmy3lqjPyIy8pXsrAGs-8" edge="1">
          <mxGeometry width="50" height="50" relative="1" as="geometry">
            <mxPoint x="500" y="620" as="sourcePoint" />
            <mxPoint x="460" y="580" as="targetPoint" />
          </mxGeometry>
        </mxCell>
        <mxCell id="Ksmy3lqjPyIy8pXsrAGs-7" value="UIWindow" style="edgeLabel;html=1;align=center;verticalAlign=middle;resizable=0;points=[];labelBackgroundColor=none;fontStyle=1;fontSize=23;" parent="Ksmy3lqjPyIy8pXsrAGs-6" vertex="1" connectable="0">
          <mxGeometry x="-0.586" relative="1" as="geometry">
            <mxPoint x="7" y="48" as="offset" />
          </mxGeometry>
        </mxCell>
        <mxCell id="Ksmy3lqjPyIy8pXsrAGs-8" value="" style="rounded=0;whiteSpace=wrap;html=1;fillColor=none;strokeColor=none;" parent="1" vertex="1">
          <mxGeometry x="440" y="430" width="40" height="40" as="geometry" />
        </mxCell>
        <mxCell id="Ksmy3lqjPyIy8pXsrAGs-9" value="" style="endArrow=classic;html=1;rounded=0;" parent="1" target="Ksmy3lqjPyIy8pXsrAGs-11" edge="1">
          <mxGeometry width="50" height="50" relative="1" as="geometry">
            <mxPoint x="590" y="560" as="sourcePoint" />
            <mxPoint x="580" y="570" as="targetPoint" />
          </mxGeometry>
        </mxCell>
        <mxCell id="Ksmy3lqjPyIy8pXsrAGs-10" value="UIView" style="edgeLabel;html=1;align=center;verticalAlign=middle;resizable=0;points=[];labelBackgroundColor=none;fontStyle=1;fontSize=23;" parent="Ksmy3lqjPyIy8pXsrAGs-9" vertex="1" connectable="0">
          <mxGeometry x="-0.586" relative="1" as="geometry">
            <mxPoint x="3" y="36" as="offset" />
          </mxGeometry>
        </mxCell>
        <mxCell id="Ksmy3lqjPyIy8pXsrAGs-11" value="" style="rounded=0;whiteSpace=wrap;html=1;fillColor=none;strokeColor=none;" parent="1" vertex="1">
          <mxGeometry x="550" y="430" width="40" height="40" as="geometry" />
        </mxCell>
        <mxCell id="LjP4JyuqpdZS3edzqOe5-2" value="" style="shape=parallelogram;perimeter=parallelogramPerimeter;whiteSpace=wrap;html=1;fixedSize=1;rotation=90;flipH=1;size=67.5;fillColor=#fff2cc;strokeColor=#d6b656;opacity=70;" parent="1" vertex="1">
          <mxGeometry x="460" y="230" width="457.5" height="137.5" as="geometry" />
        </mxCell>
        <mxCell id="_t_REPPVPq6vuI19u_cc-1" value="" style="endArrow=classic;html=1;rounded=0;" parent="1" target="_t_REPPVPq6vuI19u_cc-3" edge="1">
          <mxGeometry width="50" height="50" relative="1" as="geometry">
            <mxPoint x="715" y="620" as="sourcePoint" />
            <mxPoint x="675" y="580" as="targetPoint" />
          </mxGeometry>
        </mxCell>
        <mxCell id="_t_REPPVPq6vuI19u_cc-2" value="CALayer" style="edgeLabel;html=1;align=center;verticalAlign=middle;resizable=0;points=[];labelBackgroundColor=none;fontStyle=1;fontSize=23;" parent="_t_REPPVPq6vuI19u_cc-1" vertex="1" connectable="0">
          <mxGeometry x="-0.586" relative="1" as="geometry">
            <mxPoint x="7" y="48" as="offset" />
          </mxGeometry>
        </mxCell>
        <mxCell id="_t_REPPVPq6vuI19u_cc-3" value="" style="rounded=0;whiteSpace=wrap;html=1;fillColor=none;strokeColor=none;" parent="1" vertex="1">
          <mxGeometry x="655" y="430" width="40" height="40" as="geometry" />
        </mxCell>
      </root>
    </mxGraphModel>
  </diagram>
</mxfile>
